<?xml version="1.0" standalone="no"?><svg xmlns="http://www.w3.org/2000/svg" viewBox="0 0 1440 320"><path fill="#0099ff" fill-opacity="1" d="M0,224L24,208C48,192,96,160,144,144C192,128,240,128,288,144C336,160,384,192,432,208C480,224,528,224,576,192C624,160,672,96,720,85.3C768,75,816,117,864,122.7C912,128,960,96,1008,90.7C1056,85,1104,107,1152,144C1200,181,1248,235,1296,229.3C1344,224,1392,160,1416,128L1440,96L1440,320L1416,320C1392,320,1344,320,1296,320C1248,320,1200,320,1152,320C1104,320,1056,320,1008,320C960,320,912,320,864,320C816,320,768,320,720,320C672,320,624,320,576,320C528,320,480,320,432,320C384,320,336,320,288,320C240,320,192,320,144,320C96,320,48,320,24,320L0,320Z"></path></svg>